<?xml version="1.0" encoding="UTF-8" standalone="no"?>
<!-- Created with Inkscape (http://www.inkscape.org/) -->
<svg
   xmlns:dc="http://purl.org/dc/elements/1.1/"
   xmlns:cc="http://creativecommons.org/ns#"
   xmlns:rdf="http://www.w3.org/1999/02/22-rdf-syntax-ns#"
   xmlns:svg="http://www.w3.org/2000/svg"
   xmlns="http://www.w3.org/2000/svg"
   version="1.1"
   width="720"
   height="480"
   id="svg2">
  <defs
     id="defs4" />
  <metadata
     id="metadata7">
    <rdf:RDF>
      <cc:Work
         rdf:about="">
        <dc:format>image/svg+xml</dc:format>
        <dc:type
           rdf:resource="http://purl.org/dc/dcmitype/StillImage" />
        <dc:title></dc:title>
      </cc:Work>
    </rdf:RDF>
  </metadata>
  <g
     transform="translate(-82.375,-153.28318)"
     id="layer1">
    <path
       d="m 92.476525,171.64347 c 0,0 10.101525,4.04061 21.213205,9.09137 11.11168,5.05076 12.12183,9.09137 16.16244,11.11168 4.04061,2.0203 9.09137,3.03045 16.16244,3.03045 7.07107,0 9.09137,-5.05076 9.09137,-5.05076 l 10.10153,-7.07107 9.09137,-4.04061 c 0,0 4.04061,-1.01015 42.42641,-2.0203 38.3858,-1.01015 13.13198,7.07107 19.1929,10.10152 6.06091,3.03046 18.18274,12.12183 46.46701,23.23351 28.28428,11.11168 14.14214,-4.04061 20.20305,-8.08122 6.06092,-4.04061 13.13199,-8.08122 22.22336,-12.12183 9.09137,-4.04061 10.10153,0 27.27412,3.03046 17.17259,3.03046 26.26397,13.13198 36.36549,18.18275 10.10153,5.05076 14.14214,8.08122 44.44671,20.20305 30.30458,12.12183 35.35534,6.06091 53.53809,8.08122 18.18274,2.0203 18.18274,1.01015 30.30457,2.0203 12.12184,1.01015 28.28428,3.03046 33.33504,4.04061 5.05076,1.01015 8.08122,8.08122 12.12183,12.12183 4.04061,4.04061 11.11168,13.13199 19.1929,23.23351 8.08122,10.10153 24.24366,21.21321 37.37564,26.26397 13.13198,5.05076 10.10153,2.0203 17.17259,-1.01015 7.07107,-3.03046 16.16245,-9.09138 21.21321,-19.1929 5.05076,-10.10153 3.03046,-6.06092 8.08122,-15.15229 5.05076,-9.09137 12.12183,-3.03046 12.12183,-3.03046 0,0 7.07107,1.01015 19.1929,9.09137 12.12183,8.08122 10.10152,10.10153 15.15229,18.18275 5.05076,8.08122 3.03045,16.16244 -1.01016,26.26397 -4.04061,10.10152 -2.0203,7.07106 -9.09137,15.15228 -7.07107,8.08122 -3.03046,7.07107 -9.09137,20.20306 -6.06092,13.13198 -2.02031,11.11167 -4.04061,23.2335 -2.02031,12.12183 0,11.11168 1.01015,32.32489 1.01015,21.2132 -2.02031,7.07106 -2.02031,18.18274 0,11.11168 0,7.07107 -8.08122,18.18275 -8.08122,11.11167 -3.03045,8.08122 -30.30457,22.22335 -27.27412,14.14214 -12.12183,1.01016 -47.47717,-1.01015 -35.35534,-2.0203 -1.01015,0 -10.10153,-3.03046 -9.09137,-3.03046 -15.15229,-9.09137 -25.25381,-19.1929 -10.10153,-10.10152 -18.18275,-35.35533 -16.16244,-43.43656 2.0203,-8.08122 6.06091,-5.05076 9.09137,-10.10152 3.03046,-5.05076 9.09137,-11.11168 10.10153,-21.2132 1.01015,-10.10153 2.0203,-10.10153 4.04061,-15.15229 2.0203,-5.05077 1.01015,-11.11168 -3.03046,-19.1929 -4.04061,-8.08122 -2.02031,-7.07107 -5.05076,-13.13198 -3.03046,-6.06092 -3.03046,-5.05077 -14.14214,-16.16244 -11.11168,-11.11168 -7.07107,-1.01016 -20.20305,-1.01016 -13.13198,0 -2.0203,1.01016 -13.13198,8.08122 -11.11168,7.07107 -3.03046,1.01016 -16.16244,3.03046 -13.13199,2.02031 -1.01016,0 -33.33504,-3.03046 -32.32488,-3.03045 -3.03046,-2.0203 -18.18274,-11.11167 -15.15229,-9.09138 -3.03046,-4.04061 -11.11168,-13.13199 -8.08122,-9.09137 -4.04061,-7.07107 -9.09137,-14.14213 -5.05077,-7.07107 -2.02031,-5.05077 -9.09138,-14.14214 -7.07107,-9.09137 -4.04061,-1.01015 -23.23351,-12.12183 -19.19289,-11.11168 -2.0203,1.01015 -9.09137,1.01015 -7.07107,0 -2.0203,1.01016 -10.10152,3.03046 -8.08122,2.02031 -4.04061,3.03046 -16.16244,12.12183 -12.12184,9.09137 0,2.02031 -4.04062,6.06092 -4.04061,4.04061 0,1.01015 -3.03045,6.06091 -3.03046,5.05076 0,2.02031 -5.05077,10.10153 -5.05076,8.08122 0,0 -7.07106,0 -7.07107,0 -35.35534,2.0203 -41.41626,0 -6.06091,-2.02031 -10.10152,-7.07107 -19.1929,-16.16244 -9.09137,-9.09138 -7.07106,-5.05077 -17.17259,-21.21321 -10.10152,-16.16244 0,-6.06091 -3.03046,-12.12183 -3.03045,-6.06091 -3.03045,-5.05076 -6.06091,-10.10152 -3.03046,-5.05077 -1.01015,-1.01016 -4.04061,-6.06092 -3.03046,-5.05076 -5.05077,-8.08122 -5.05077,-8.08122 0,0 -6.06091,-4.04061 -11.11167,-8.08122 -5.05077,-4.04061 -7.07107,-1.01015 -16.16244,-2.0203 -9.09138,-1.01016 -7.07107,2.0203 -7.07107,2.0203 l -8.08122,6.06092 -9.09137,12.12183 -15.15229,5.05076 -29.29443,-3.03046 -26.26396,-13.13198 -17.1726,-10.10153 -8.081217,-23.23351 z"
       id="path3318"
       style="fill:none;stroke:#000000;stroke-width:1px;stroke-linecap:butt;stroke-linejoin:miter;stroke-opacity:1" />
  </g>
</svg>
